<?xml version="1.0" encoding="utf-8"?>
<!-- Generator: Adobe Illustrator 23.0.3, SVG Export Plug-In . SVG Version: 6.00 Build 0)  -->
<svg version="1.1" id="Pencil" xmlns="http://www.w3.org/2000/svg" xmlns:xlink="http://www.w3.org/1999/xlink" x="0px" y="0px"
	 viewBox="0 0 22 22" style="enable-background:new 0 0 22 22;" xml:space="preserve">
<style type="text/css">
	.st0{fill-rule:evenodd;clip-rule:evenodd;fill:#000000;}
</style>
<g>
	<path id="Tip" class="st0" d="M6.97,17.85l-2.8,0.1l-0.1-0.1l0.1-2.8c0-0.1,0.1-0.2,0.2-0.1l2.7,2.7
		C7.17,17.75,7.07,17.85,6.97,17.85z"/>
	<path id="Shaft" class="st0" d="M14.57,8.55l-6.2,6.2l-1.1-1.1l6.2-6.2l-0.7-0.7l-6.2,6.2c-0.4,0.4-0.4,1,0,1.4l1.1,1.1
		c0.4,0.4,1,0.4,1.4,0l6.2-6.2L14.57,8.55z"/>
	<path id="Eraser" class="st0" d="M15.17,4.35l-1.3,1.3l0.7,0.7l1.3-1.3l1.1,1.1l-1.3,1.3l0.7,0.7l1.2-1.2c0.4-0.4,0.5-1.1,0.1-1.5
		l-1.1-1.1C16.17,3.95,15.57,3.95,15.17,4.35z"/>
</g>
</svg>
