<?xml version="1.0" encoding="utf-8"?>
<!-- Generator: Adobe Illustrator 23.0.3, SVG Export Plug-In . SVG Version: 6.00 Build 0)  -->
<svg version="1.1" id="Circle" xmlns="http://www.w3.org/2000/svg" xmlns:xlink="http://www.w3.org/1999/xlink" x="0px" y="0px"
	 viewBox="0 0 22 22" style="enable-background:new 0 0 22 22;" xml:space="preserve">
<style type="text/css">
	.st0{fill:#000000;}
</style>
<g>
	<path id="Dash12_2_" class="st0" d="M7.2,6.4c0.5-0.4,1.1-0.8,1.7-1l-0.3-1C7.8,4.7,7.1,5.1,6.5,5.7L7.2,6.4z"/>
	<path id="Dash11_2_" class="st0" d="M5.7,6.5c-0.5,0.6-1,1.3-1.2,2.1l1,0.3c0.2-0.6,0.6-1.2,1-1.7L5.7,6.5z"/>
	<path id="Dash10_2_" class="st0" d="M5.1,10l-1-0.3C4,10.2,4,10.6,4,11s0,0.8,0.1,1.2l1-0.3C5,11.7,5,11.3,5,11S5,10.3,5.1,10z"/>
	<path id="Dash9_4_" class="st0" d="M4.4,13.4c0.3,0.8,0.7,1.5,1.2,2.1l0.7-0.7c-0.4-0.5-0.7-1.1-1-1.7L4.4,13.4z"/>
	<path id="Dash8_7_" class="st0" d="M8.9,16.6c-0.6-0.2-1.2-0.6-1.7-1l-0.7,0.7c0.6,0.5,1.4,1,2.1,1.2L8.9,16.6z"/>
	<path id="Dash7_5_" class="st0" d="M12,16.9C11.7,17,11.3,17,11,17s-0.7,0-1-0.1l-0.3,1C10.2,18,10.6,18,11,18s0.8,0,1.2-0.1
		L12,16.9z"/>
	<path id="Dash6_7_" class="st0" d="M14.8,15.6c-0.5,0.4-1.1,0.8-1.7,1l0.3,1c0.8-0.3,1.5-0.7,2.1-1.2L14.8,15.6z"/>
	<path id="Dash5_2_" class="st0" d="M16.6,13.1c-0.2,0.6-0.6,1.2-1,1.7l0.7,0.7c0.5-0.6,1-1.3,1.2-2.1L16.6,13.1z"/>
	<path id="Dash4_5_" class="st0" d="M16.9,12l1,0.3C18,11.8,18,11.4,18,11s0-0.8-0.1-1.2l-1,0.3c0.1,0.3,0.1,0.6,0.1,1
		C17,11.3,17,11.7,16.9,12z"/>
	<path id="Dash3_4_" class="st0" d="M17.6,8.6c-0.3-0.8-0.7-1.5-1.2-2.1l-0.7,0.7c0.4,0.5,0.7,1.1,1,1.7L17.6,8.6z"/>
	<path id="Dash2_7_" class="st0" d="M13.4,4.4l-0.3,1c0.6,0.2,1.2,0.6,1.7,1l0.7-0.7C14.9,5.1,14.2,4.7,13.4,4.4z"/>
	<path id="Dash1_2_" class="st0" d="M10,5.1C10.3,5,10.7,5,11,5s0.7,0,1,0.1l0.3-1C11.8,4,11.4,4,11,4s-0.8,0-1.2,0.1L10,5.1z"/>
</g>
</svg>
