<?xml version="1.0" encoding="utf-8"?>
<!-- Generator: Adobe Illustrator 23.0.3, SVG Export Plug-In . SVG Version: 6.00 Build 0)  -->
<svg version="1.1" id="Lasso" xmlns="http://www.w3.org/2000/svg" xmlns:xlink="http://www.w3.org/1999/xlink" x="0px" y="0px"
	 viewBox="0 0 22 22" style="enable-background:new 0 0 22 22;" xml:space="preserve">
<style type="text/css">
	.st0{fill:#000000;}
</style>
<g>
	<path id="Dash10_5_" class="st0" d="M9.3,4.9c-0.9,0.4-1.8,1-2.5,1.7l0.7,0.7c0.7-0.6,1.4-1.1,2.2-1.5L9.3,4.9z"/>
	<path id="Dash9_7_" class="st0" d="M6,7.5c-0.6,0.7-1.1,1.6-1.4,2.7l1,0.3c0.3-0.9,0.8-1.6,1.3-2.3L6,7.5z"/>
	<path id="Dash8_10_" class="st0" d="M5.1,11.6l-1-0.2C4,12,4,12.4,4,13s0.1,1.2,0.3,1.7l0.9-0.5C5.1,13.9,5,13.4,5,13
		C5,13,5,12.1,5.1,11.6z"/>
	<path id="Dash7_8_" class="st0" d="M5.7,15.3l-0.8,0.5c0.7,1.1,1.8,1.9,3,2.1l0.1-1C7,16.7,6.2,16.1,5.7,15.3z"/>
	<path id="Dash6_10_" class="st0" d="M11.5,16c-0.6,0.6-1.4,1-2.5,1.1v1c1.4-0.1,2.6-0.6,3.4-1.6L11.5,16z"/>
	<path id="Dash5_6_" class="st0" d="M13.1,15.3c0.1-0.4,0.2-0.7,0.3-1.1c0-0.4,0.1-0.6,0.1-0.7c0.1-0.4,0.1-0.7,0.2-0.9l-1-0.3
		c-0.2,0.5-0.2,0.7-0.3,1.2c0,0.1-0.1,0.6-0.1,0.6s-0.1,0.6-0.2,0.9L13.1,15.3z"/>
	<path id="Dash4_8_" class="st0" d="M14.4,11.5c0.7-0.5,1.6-0.7,2.3-1l-0.8-0.7c-0.1,0.1-0.3,0.1-0.5,0.2c-0.6,0.2-1.5,0.5-2.1,1.2
		L14.4,11.5z"/>
	<path id="Dash3_7_" class="st0" d="M16.8,9.1l0.8,0.6C17.8,9.3,18,8.7,18,8c0-0.5-0.1-1.1-0.3-1.6l-0.9,0.4C17,7.1,17,7.5,17,8
		S16.9,8.8,16.8,9.1z"/>
	<path id="Dash2_10_" class="st0" d="M17.2,5.5c-0.6-0.7-1.5-1.3-3-1.4v1c1,0.1,1.7,0.4,2.2,0.9L17.2,5.5z"/>
	<path id="Dash1_5_" class="st0" d="M10.8,5.5c0.9-0.3,1.7-0.4,2.3-0.5L13,4c-0.8,0.1-1.7,0.2-2.6,0.5L10.8,5.5z"/>
</g>
</svg>
