<?xml version="1.0" encoding="utf-8"?>
<!-- Generator: Adobe Illustrator 23.0.3, SVG Export Plug-In . SVG Version: 6.00 Build 0)  -->
<svg version="1.1" id="Move" xmlns="http://www.w3.org/2000/svg" xmlns:xlink="http://www.w3.org/1999/xlink" x="0px" y="0px"
	 viewBox="0 0 22 22" style="enable-background:new 0 0 22 22;" xml:space="preserve">
<style type="text/css">
	.st0{fill:#333333;}
</style>
<path id="Arrows" class="st0" d="M18.95,10.89l-2.73-2.16C16.14,8.66,16,8.73,16,8.88v1.44h-4.31V6h1.44c0.14,0,0.22-0.14,0.14-0.22
	l-2.16-2.73c-0.07-0.07-0.22-0.07-0.22,0L8.73,5.79C8.66,5.86,8.73,6,8.88,6h1.44v4.31H6V8.88c0-0.14-0.14-0.22-0.22-0.14
	l-2.73,2.16c-0.07,0.07-0.07,0.22,0,0.22l2.73,2.16c0.07,0.07,0.22,0,0.22-0.14v-1.44h4.31V16H8.88c-0.14,0-0.22,0.14-0.14,0.22
	l2.16,2.73c0.07,0.07,0.22,0.07,0.22,0l2.16-2.73c0.07-0.07,0-0.22-0.14-0.22h-1.44v-4.31H16v1.44c0,0.14,0.14,0.22,0.22,0.14
	l2.73-2.16C19.02,11.11,19.02,10.96,18.95,10.89z"/>
</svg>
