<?xml version="1.0" encoding="utf-8"?>
<!-- Generator: Adobe Illustrator 23.0.3, SVG Export Plug-In . SVG Version: 6.00 Build 0)  -->
<svg version="1.1" id="Rectangle" xmlns="http://www.w3.org/2000/svg" xmlns:xlink="http://www.w3.org/1999/xlink" x="0px" y="0px"
	 viewBox="0 0 22 22" style="enable-background:new 0 0 22 22;" xml:space="preserve">
<style type="text/css">
	.st0{fill:#000000;}
</style>
<g>
	<rect id="Dash8_4_" x="4" y="9" class="st0" width="1" height="4"/>
	<polygon id="Dash7_2_" class="st0" points="5,15 4,15 4,18 7,18 7,17 5,17 	"/>
	<rect id="Dash6_4_" x="9" y="17" class="st0" width="4" height="1"/>
	<polygon id="Dash5Corner" class="st0" points="17,15 17,17 15,17 15,18 18,18 18,15 	"/>
	<rect id="Dash4_2_" x="17" y="9" class="st0" width="1" height="4"/>
	<polygon id="Dash3Corner_1_" class="st0" points="17,7 18,7 18,4 15,4 15,5 17,5 	"/>
	<rect id="Dash2_4_" x="9" y="4" class="st0" width="4" height="1"/>
	<polygon id="Dash1Corner_2_" class="st0" points="5,7 5,5 7,5 7,4 4,4 4,7 	"/>
</g>
</svg>
