<?xml version="1.0" encoding="utf-8"?>
<!-- Generator: Adobe Illustrator 23.0.3, SVG Export Plug-In . SVG Version: 6.00 Build 0)  -->
<svg version="1.1" id="Save" xmlns="http://www.w3.org/2000/svg" xmlns:xlink="http://www.w3.org/1999/xlink" x="0px" y="0px"
	 viewBox="0 0 22 22" style="enable-background:new 0 0 22 22;" xml:space="preserve">
<style type="text/css">
	.st0{fill:#000000;}
</style>
<g>
	<path id="Diskette_1_" class="st0" d="M18,3H4C3.5,3,3,3.5,3,4v14c0,0.5,0.5,1,1,1h1l0,0h1l0,0h1h3h3l0,0h1l0,0h4c0.5,0,1-0.5,1-1
		V4C19,3.5,18.5,3,18,3z M10,18v-3H7v3H6v-4h7v4H10z M14,18v-5H5v5H4V4h14v14H14z"/>
</g>
</svg>
