<?xml version="1.0" encoding="utf-8"?>
<!-- Generator: Adobe Illustrator 23.0.3, SVG Export Plug-In . SVG Version: 6.00 Build 0)  -->
<svg version="1.1" id="Revert" xmlns="http://www.w3.org/2000/svg" xmlns:xlink="http://www.w3.org/1999/xlink" x="0px" y="0px"
	 viewBox="0 0 22 22" style="enable-background:new 0 0 22 22;" xml:space="preserve">
<style type="text/css">
	.st0{fill:#000000;}
</style>
<g>
	<path id="Line" class="st0" d="M4,18.5L4,18.5c0.3,0,0.5-0.2,0.5-0.5V4c0-0.3-0.2-0.5-0.5-0.5l0,0C3.7,3.5,3.5,3.7,3.5,4v14
		C3.5,18.3,3.7,18.5,4,18.5z"/>
	<path id="Arrow_9_" class="st0" d="M5.6,10.6l5-5c0.2-0.2,0.5-0.2,0.7,0s0.2,0.5,0,0.7l-4.2,4.2h11c0.2,0,0.4,0.2,0.4,0.5
		s-0.2,0.5-0.4,0.5h-11l4.2,4.2c0.2,0.2,0.2,0.5,0,0.7s-0.5,0.2-0.7,0l-5-5c-0.1-0.1-0.1-0.3-0.1-0.4S5.5,10.7,5.6,10.6z"/>
</g>
</svg>
